<?xml version="1.0" encoding="utf-8"?>
<!-- Generator: Adobe Illustrator 15.1.0, SVG Export Plug-In . SVG Version: 6.00 Build 0)  -->
<!DOCTYPE svg PUBLIC "-//W3C//DTD SVG 1.1//EN" "http://www.w3.org/Graphics/SVG/1.1/DTD/svg11.dtd">
<svg version="1.1" id="Layer_1" xmlns="http://www.w3.org/2000/svg" xmlns:xlink="http://www.w3.org/1999/xlink" x="0px" y="0px"
	 width="175.251px" height="185.431px" viewBox="0 0 175.251 185.431" enable-background="new 0 0 175.251 185.431"
	 xml:space="preserve">
<path fill="#FFFFFF" d="M174.803,101.409c-1.367,11.616-5.375,22.598-11.799,32.33c-11.35,17.198-29.289,28.947-49.529,32.447
	c-3.816,0.658-7.273,0.983-11.457,1.059c-20.398,0.399-40.012-7.607-54.377-22.189c-3.9-3.959-7.199-8.125-10.174-12.857
	c-0.635-1.008-1.867-3.116-2.15-3.666c-0.232-0.459,0.092,0.016,0.708,1.041c1.533,2.551,3.908,5.85,6.033,8.391
	c5.065,6.059,11.099,11.225,17.798,15.266c7.558,4.541,15.873,7.633,24.473,9.082c12.608,2.134,25.489,0.859,37.314-3.691
	c8.115-3.133,15.565-7.724,22.081-13.64c1.616-1.466,4.466-4.366,5.791-5.907c9.674-11.184,15.481-24.548,16.99-39.121
	c0.266-2.525,0.332-4.051,0.332-7.25c0-5.566-0.482-10.133-1.624-15.29c-3.351-15.174-11.69-28.864-23.698-38.913
	c-4.225-3.532-8.516-6.357-13.498-8.874c-13.44-6.791-28.689-9.074-43.688-6.532C71.83,25.2,59.988,30.767,50.314,39.065
	c-5.558,4.767-10.715,10.816-14.29,16.766c-0.616,1.025-0.94,1.5-0.708,1.041c0.633-1.241,2.375-4.082,3.732-6.082
	c8.666-12.758,21.281-22.665,35.639-27.98c7.274-2.691,14.374-4.158,22.29-4.6c1.858-0.101,7.416-0.033,9.316,0.117
	c2.641,0.216,4.865,0.49,7.182,0.891c16.049,2.775,30.73,10.732,41.863,22.706c10.832,11.632,17.623,26.331,19.456,42.071
	c0.366,3.084,0.448,4.487,0.457,7.951V0H0v185.431h175.252V93.443C175.242,96.928,175.154,98.398,174.803,101.409z M140.889,91.002
	c-1.283,0.259-3.299,0.142-4.74-0.274c-0.842-0.242-1.268,0.024-2.825,1.75c-2.017,2.232-3.224,2.966-5.599,3.383
	c-0.884,0.158-1.709,0.258-5.334,0.633c-2.391,0.25-3.607,0.575-4.116,1.084c-0.351,0.35-0.491,0.857-1.05,3.832
	c-0.983,5.258-1.625,7.008-2.741,7.583c-1.533,0.774-4.366,0.133-5.29-1.183c-0.643-0.918-0.076-2.584,0.865-2.559
	c0.375,0.017,0.709,0.2,1.518,0.883c0.725,0.6,0.999,0.75,1.341,0.717c0.325-0.033,0.533-0.324,0.892-1.232
	c0.608-1.601,0.65-3.518,0.133-6.666c-0.592-3.584-0.357-5.059,1.059-6.559c0.608-0.633,1.142-1.033,2.1-1.541
	c0.658-0.351,0.634-0.392-0.092-0.15c-1.475,0.509-2.924,1.65-3.566,2.833c-0.308,0.567-0.549,1.575-0.549,2.316
	c0,0.042,0,0.25,0,0.625c-1.66-0.03-2.582-0.046-2.767-0.05c-3.783-0.066-5.783-0.258-7.733-0.733
	c-1.199-0.3-1.491-0.283-2.016,0.075c-1.092,0.75-2.009,2.658-3.607,7.499c-1.109,3.358-1.176,3.524-2.009,5.267
	c-1.149,2.416-1.45,3.475-1.45,5.166c0,1.758,0.383,3.092,1.541,5.375c0.418,0.824,1.242,2.308,1.826,3.291
	c1.424,2.408,2.166,3.908,2.424,4.949c0.25,0.975,0.259,1.6,0.074,3.3c-0.341,3.191-0.416,3.532-0.815,3.633
	c-0.408,0.1-1.2-0.509-1.667-1.292c-0.6-1-0.899-2.191-1.049-4.224c-0.051-0.685-0.143-1.476-0.209-1.759
	c-0.383-1.666-1.334-3.232-3.074-5.091c-0.759-0.792-1.476-1.408-3.092-2.617c-1.951-1.458-2.333-1.991-2.326-3.232
	c0-0.741,0.108-1.116,0.9-3.133c0.3-0.783,0.633-2.233,0.817-3.616c0.157-1.191,0.133-5.017-0.043-6.375
	c-0.383-2.883-1.066-5.299-2.016-7.157c-0.484-0.934-0.691-1.241-1.825-2.675c-2.241-2.825-3.433-5.092-3.941-7.457
	c-0.108-0.525-0.149-1.067-0.149-2.084c0-1.467,0.091-2.041,0.516-3.458c0.125-0.417,0.242-0.675,0.259-0.583
	s0.175,0.783,0.358,1.525c1.041,4.266,2.691,7.24,4.725,8.549c1.399,0.908,3.5,1.767,5.225,2.133
	c1.191,0.258,3.416,0.316,4.69,0.133c1.683-0.249,3.226-0.708,5.1-1.523c4.509-1.959,7.017-2.551,10.874-2.551
	c2.4,0,4.25,0.25,6.466,0.867c0.983,0.266,1.149,0.333,3.866,1.491c3.301,1.399,4.983,1.875,6.424,1.816
	c0.685-0.025,0.834-0.066,1.393-0.342c1.175-0.583,2.799-1.941,3.85-3.225c0.03-0.037,0.184-0.224,0.458-0.558
	c0.255,0.229,0.397,0.357,0.425,0.383c1.643,1.492,3.658,2.367,5.733,2.482C142.014,90.735,141.989,90.786,140.889,91.002z
	 M48.982,95.402c1.591-1.417,3.74-3.658,5.115-5.325c0.691-0.824,1.607-1.934,2.042-2.458c7.466-8.991,14.498-15.548,21.539-20.081
	c7.266-4.683,14.265-7.273,20.923-7.741c7.899-0.55,15.648,2,20.34,6.691c1.175,1.183,1.809,2.009,3.449,4.532
	c3.95,6.074,4.791,7.25,6.166,8.699c1.768,1.875,3.301,2.65,4.742,2.4c1.707-0.292,3.066-1.6,3.832-3.708
	c0.016-0.043,0.094-0.257,0.234-0.642c0.079,0.125,0.123,0.194,0.133,0.208c0.175,0.274,1.142,0.899,1.725,1.125
	c0.492,0.192,1.083,0.358,1.083,0.308c0-0.016-0.274-0.175-0.601-0.35c-0.865-0.449-1.924-1.516-2.34-2.366
	c-0.601-1.226-0.834-2.741-0.65-4.291c0.1-0.842,0.357-2.075,0.458-2.175c0.075-0.084,0.909,0.2,1.7,0.566
	c1.725,0.8,3.149,2.083,3.832,3.458c0.342,0.683,0.375,0.825,0.226,0.95c-0.183,0.15-0.149,0.25,0.075,0.25s0.559-0.175,2.883-1.483
	c5.242-2.958,7.324-4.017,8.457-4.267c0.584-0.133,0.709-0.066,0.709,0.367c0,0.85-1.892,3.875-4.824,7.707
	c-0.053,0.068-0.314,0.41-0.784,1.025c0.011,0.335,0.016,0.521,0.017,0.558c0.018,0.858,0.176,2.226,0.351,3.092
	c0.267,1.358,0.6,1.874,2.815,4.399c2.018,2.301,2.601,3.125,2.842,4.008c0.134,0.5,0.051,0.775-0.391,1.267
	c-0.359,0.392-0.384,0.45-0.367,0.833c0.017,0.351-0.017,0.442-0.209,0.617c-0.266,0.25-0.924,0.5-1.658,0.641
	c-0.975,0.176-1.674,0-4.373-1.115c-0.893-0.375-1.926-0.775-2.293-0.9c-1.74-0.592-2.582-1.333-4.582-4.083
	c-1.3-1.774-1.8-2.366-2.383-2.792c-0.742-0.541-1.051-0.565-1.967-0.133c-0.975,0.459-1.541,0.592-2.732,0.65
	c-2.233,0.107-5.867-0.643-7.108-1.483c-0.908-0.6-2.124-1.917-4.433-4.783c-3.684-4.565-5.842-6.849-8.416-8.915
	c-2.574-2.075-5.675-3.65-8.424-4.291c-2.459-0.576-5.642-0.576-9.158,0.008c-4.933,0.816-9.241,2.725-13.124,5.824
	c-1.258,1-4.566,4.283-5.392,5.342c-1.95,2.508-2.916,5.683-2.8,9.199c0.003,0.074,0.017,0.445,0.042,1.115
	c-0.229,0.03-0.358,0.047-0.384,0.051c-1.816,0.225-3.424,0.717-5.273,1.607c-2.351,1.125-4.384,2.45-9.732,6.316
	c-5.042,3.642-6.867,4.899-9.416,6.466c-3.825,2.342-7.899,4.3-11.124,5.341c-5.175,1.668-9.925,1.601-14.398-0.199
	c-1.958-0.783-3.858-1.991-5.558-3.533c-0.643-0.574-1.934-1.967-1.884-2.017c0.009-0.017,0.392,0.226,0.851,0.525
	c1.725,1.149,4.107,2.142,6.074,2.524C32.008,106.351,40.533,102.976,48.982,95.402z M35.066,127.948
	c0.05,0.092,0.066,0.167,0.05,0.167c-0.024,0-0.083-0.075-0.133-0.167c-0.05-0.091-0.067-0.166-0.05-0.166
	C34.959,127.782,35.017,127.857,35.066,127.948z M34.983,57.456c0.05-0.092,0.108-0.167,0.133-0.167c0.017,0,0,0.075-0.05,0.167
	c-0.05,0.091-0.107,0.166-0.133,0.166C34.916,57.622,34.934,57.547,34.983,57.456z M174.594,49.04
	c0.075,0.133,0.109,0.25,0.092,0.25c-0.025,0-0.1-0.117-0.175-0.25c-0.075-0.142-0.108-0.25-0.092-0.25
	C174.444,48.79,174.52,48.898,174.594,49.04z M174.002,137.405c-0.616,1.176-2.215,3.851-3.308,5.542
	c-13.106,20.298-33.612,34.722-56.994,40.112c-6.607,1.525-12.615,2.25-19.599,2.358c-5.375,0.083-10.09-0.233-15.366-1.025
	c-15.605-2.341-30.454-8.74-43.003-18.515C15.21,149.88,2.345,126.04,0.287,100.202c-0.434-5.417-0.375-11.549,0.158-16.874
	c1.516-15.016,6.641-29.322,15.007-41.912c13.123-19.757,33.33-33.78,56.319-39.08C77.07,1.111,82.653,0.345,88.27,0.045
	c1.758-0.092,8.667-0.033,10.292,0.083c5.574,0.392,10.182,1.066,15.14,2.217c7.657,1.766,15.049,4.508,22.056,8.183
	c14.174,7.425,26.23,18.448,34.938,31.93c1.093,1.691,2.691,4.366,3.308,5.542c0.492,0.949,0.426,0.85-0.75-1.084
	c-7.449-12.207-18.022-22.623-30.321-29.872C127.208,7.777,109.259,3.678,90.978,5.169c-16.365,1.342-32.13,7.324-45.246,17.174
	c-3.642,2.732-6.092,4.865-9.466,8.24c-3.45,3.441-5.542,5.85-8.282,9.499c-9.866,13.157-15.85,28.848-17.199,45.12
	c-0.616,7.392-0.309,14.99,0.908,22.165c2.324,13.782,7.883,26.747,16.266,37.913c2.758,3.684,4.857,6.1,8.308,9.541
	c3.374,3.375,5.824,5.508,9.466,8.24c13.115,9.85,28.881,15.832,45.246,17.174c14.341,1.166,28.622-1.117,41.704-6.684
	c2.967-1.266,6.898-3.24,9.791-4.924c12.523-7.291,23.239-17.781,30.779-30.139C174.428,136.556,174.495,136.456,174.002,137.405z
	 M174.594,136.364c-0.074,0.134-0.15,0.25-0.175,0.25c-0.017,0,0.017-0.116,0.092-0.25c0.075-0.142,0.149-0.25,0.175-0.25
	C174.704,136.114,174.669,136.223,174.594,136.364z"/>
</svg>
